<svg xmlns="http://www.w3.org/2000/svg" viewBox="0 0 120 120">
  <defs>
    <linearGradient id="g" x1="0.15" y1="0" x2="0.85" y2="1">
      <stop offset="0" stop-color="#7cc6ff"/>
      <stop offset="1" stop-color="#5b3cf5"/>
    </linearGradient>
    <linearGradient id="s" x1="0" y1="0" x2="0.25" y2="1">
      <stop offset="0" stop-color="#fff" stop-opacity="0.3"/>
      <stop offset="0.5" stop-color="#fff" stop-opacity="0"/>
    </linearGradient>
  </defs>
  <path d="M60 2c40 0 58 18 58 58s-18 58-58 58S2 100 2 60 20 2 60 2z" fill="url(#g)"/>
  <path d="M60 2c40 0 58 18 58 58s-18 58-58 58S2 100 2 60 20 2 60 2z" fill="url(#s)"/>
  <path d="M60 28c18 0 27 9 27 32s-9 32-27 32-27-9-27-32 9-32 27-32zm0 12c-10 0-15 5-15 20s5 20 15 20 15-5 15-20-5-20-15-20z" fill="#fff" opacity="0.95"/>
  <circle cx="44" cy="40" r="6" fill="#fff" opacity="0.6"/>
</svg>
